<svg width="145" height="32" viewBox="0 0 145 32" fill="none" xmlns="http://www.w3.org/2000/svg">
<path d="M13.9425 31.45C11.3025 31.45 8.9475 30.865 6.8775 29.695C4.8375 28.525 3.2475 26.8 2.1075 24.52C0.967498 22.24 0.397498 19.465 0.397498 16.195C0.397498 12.985 0.997498 10.24 2.1975 7.96C3.3975 5.68 5.1075 3.925 7.3275 2.695C9.5775 1.465 12.2175 0.849999 15.2475 0.849999C18.6075 0.849999 21.3225 1.465 23.3925 2.695C25.4625 3.895 27.0675 5.815 28.2075 8.455L21.0525 11.29C20.6625 9.76 19.9725 8.65 18.9825 7.96C17.9925 7.27 16.7625 6.925 15.2925 6.925C13.8225 6.925 12.5625 7.285 11.5125 8.005C10.4625 8.695 9.6675 9.73 9.1275 11.11C8.5875 12.46 8.3175 14.14 8.3175 16.15C8.3175 18.25 8.5875 20.005 9.1275 21.415C9.6975 22.825 10.5225 23.875 11.6025 24.565C12.7125 25.225 14.0775 25.555 15.6975 25.555C16.5675 25.555 17.3625 25.45 18.0825 25.24C18.8025 25.03 19.4325 24.73 19.9725 24.34C20.5125 23.92 20.9325 23.41 21.2325 22.81C21.5325 22.18 21.6825 21.445 21.6825 20.605V20.155H14.8875V14.98H28.2525V31H22.9875L22.4025 24.025L23.6625 25.105C23.0325 27.145 21.8925 28.72 20.2425 29.83C18.6225 30.91 16.5225 31.45 13.9425 31.45Z" fill="url(#paint0_linear_61_174)"/>
<path d="M46.192 16.735C46.192 15.685 45.892 14.86 45.292 14.26C44.722 13.63 43.942 13.315 42.952 13.315C41.962 13.315 41.107 13.57 40.387 14.08C39.697 14.56 39.217 15.43 38.947 16.69L32.467 15.16C32.887 13 33.997 11.275 35.797 9.985C37.597 8.695 40.132 8.05 43.402 8.05C45.592 8.05 47.452 8.38 48.982 9.04C50.542 9.67 51.727 10.63 52.537 11.92C53.377 13.18 53.797 14.74 53.797 16.6V24.835C53.797 26.005 54.322 26.59 55.372 26.59C55.912 26.59 56.347 26.53 56.677 26.41L56.227 30.775C55.327 31.195 54.232 31.405 52.942 31.405C51.772 31.405 50.737 31.225 49.837 30.865C48.937 30.475 48.232 29.905 47.722 29.155C47.212 28.375 46.957 27.4 46.957 26.23V25.96L47.812 25.645C47.812 26.935 47.422 28.015 46.642 28.885C45.892 29.755 44.902 30.4 43.672 30.82C42.472 31.24 41.212 31.45 39.892 31.45C38.362 31.45 37.027 31.21 35.887 30.73C34.747 30.25 33.862 29.56 33.232 28.66C32.632 27.73 32.332 26.59 32.332 25.24C32.332 23.62 32.812 22.285 33.772 21.235C34.762 20.155 36.307 19.405 38.407 18.985L46.912 17.23L46.867 21.28L42.547 22.18C41.647 22.36 40.972 22.63 40.522 22.99C40.102 23.32 39.892 23.83 39.892 24.52C39.892 25.18 40.132 25.675 40.612 26.005C41.092 26.335 41.662 26.5 42.322 26.5C42.832 26.5 43.312 26.425 43.762 26.275C44.242 26.125 44.662 25.9 45.022 25.6C45.382 25.27 45.667 24.865 45.877 24.385C46.087 23.905 46.192 23.335 46.192 22.675V16.735ZM59.6966 31V8.5H66.5366L66.7616 12.865C67.4816 11.275 68.4866 10.075 69.7766 9.265C71.0966 8.455 72.6116 8.05 74.3216 8.05C76.0016 8.05 77.4566 8.425 78.6866 9.175C79.9166 9.925 80.8316 11.035 81.4316 12.505C81.9116 11.515 82.5266 10.69 83.2766 10.03C84.0566 9.37 84.9416 8.875 85.9316 8.545C86.9216 8.215 87.9416 8.05 88.9916 8.05C90.4916 8.05 91.8116 8.35 92.9516 8.95C94.0916 9.52 94.9916 10.405 95.6516 11.605C96.3416 12.775 96.6866 14.245 96.6866 16.015V31H89.0366V17.77C89.0366 16.33 88.7516 15.325 88.1816 14.755C87.6416 14.185 86.9066 13.9 85.9766 13.9C85.2266 13.9 84.5366 14.095 83.9066 14.485C83.3066 14.845 82.8416 15.4 82.5116 16.15C82.1816 16.9 82.0166 17.845 82.0166 18.985V31H74.3666V17.77C74.3666 16.33 74.0816 15.325 73.5116 14.755C72.9416 14.185 72.2066 13.9 71.3066 13.9C70.6166 13.9 69.9566 14.08 69.3266 14.44C68.7266 14.8 68.2466 15.37 67.8866 16.15C67.5266 16.9 67.3466 17.89 67.3466 19.12V31H59.6966ZM113.04 31.45C110.55 31.45 108.39 30.985 106.56 30.055C104.76 29.125 103.365 27.79 102.375 26.05C101.385 24.31 100.89 22.21 100.89 19.75C100.89 17.29 101.385 15.19 102.375 13.45C103.365 11.71 104.745 10.375 106.515 9.445C108.315 8.515 110.37 8.05 112.68 8.05C115.05 8.05 117.06 8.515 118.71 9.445C120.39 10.345 121.665 11.605 122.535 13.225C123.405 14.815 123.84 16.645 123.84 18.715C123.84 19.255 123.825 19.795 123.795 20.335C123.765 20.875 123.72 21.325 123.66 21.685H105.84V17.59H120.285L116.64 18.985C116.64 17.185 116.31 15.805 115.65 14.845C115.02 13.885 114.03 13.405 112.68 13.405C111.72 13.405 110.895 13.63 110.205 14.08C109.545 14.53 109.035 15.235 108.675 16.195C108.345 17.155 108.18 18.385 108.18 19.885C108.18 21.355 108.375 22.555 108.765 23.485C109.155 24.385 109.71 25.045 110.43 25.465C111.15 25.855 112.02 26.05 113.04 26.05C114.18 26.05 115.08 25.825 115.74 25.375C116.43 24.925 116.94 24.295 117.27 23.485L123.39 25.51C122.97 26.8 122.235 27.895 121.185 28.795C120.165 29.665 118.935 30.325 117.495 30.775C116.085 31.225 114.6 31.45 113.04 31.45ZM128.119 31V8.5H134.869L135.184 13.36C135.754 11.68 136.594 10.375 137.704 9.445C138.844 8.515 140.284 8.05 142.024 8.05C142.594 8.05 143.074 8.095 143.464 8.185C143.884 8.275 144.214 8.395 144.454 8.545L143.689 14.845C143.389 14.725 142.999 14.635 142.519 14.575C142.069 14.485 141.514 14.44 140.854 14.44C139.954 14.44 139.114 14.635 138.334 15.025C137.554 15.415 136.924 16 136.444 16.78C135.994 17.53 135.769 18.49 135.769 19.66V31H128.119Z" fill="#0B0223"/>
<defs>
<linearGradient id="paint0_linear_61_174" x1="17.3487" y1="15.4929" x2="127.316" y2="15.4929" gradientUnits="userSpaceOnUse">
<stop stop-color="#FF42A5"/>
<stop offset="1" stop-color="#FF42A5"/>
</linearGradient>
</defs>
</svg>
